<?xml version="1.0" encoding="UTF-8"?><svg id="Layer_1" xmlns="http://www.w3.org/2000/svg" xmlns:xlink="http://www.w3.org/1999/xlink" viewBox="0 0 500 412.86"><defs><style>.cls-1{fill:url(#linear-gradient-2);fill-rule:evenodd;}.cls-2{fill:url(#linear-gradient);}</style><linearGradient id="linear-gradient" x1="404.73" y1="30.12" x2="95.28" y2="339.57" gradientTransform="translate(0 408) scale(1 -1)" gradientUnits="userSpaceOnUse"><stop offset="0" stop-color="#f700fd"/><stop offset="1" stop-color="#00c4ff"/></linearGradient><linearGradient id="linear-gradient-2" x1="248" y1="412.86" x2="248" y2="106.67" gradientUnits="userSpaceOnUse"><stop offset="0" stop-color="#c71134"/><stop offset="1" stop-color="#fbbb14"/></linearGradient></defs><path class="cls-2" d="m500,258.11v.54c0,31.21-24.5,56.54-54.75,56.54-8.18,0-14.82-6.86-14.82-15.32v-82.96c0-6.18,3.54-11.5,8.68-13.93-8.61-99.93-90.14-178.57-189.11-178.57S69.5,103.04,60.89,202.96c5.14,2.43,8.68,7.75,8.68,13.93v82.96c0,8.46-6.64,15.32-14.82,15.32-30.25,0-54.75-25.32-54.75-56.54v-.54c0-15.61,6.11-29.75,16.04-39.96,5.86-6.04,13-10.71,21-13.54C45,90.39,137.43,0,250,0s205,90.39,212.96,204.61c8,2.82,15.14,7.5,21,13.54,9.93,10.21,16.04,24.36,16.04,39.96h0Z"/><path class="cls-1" d="m301.62,108.56c-3.78,3.67-7.37,11.59-7.37,16.25,0,5.31,1.54,8.75,6.76,15.17,1.11,1.37,2.7,3.88,3.53,5.59,1.32,2.72,1.5,3.48,1.5,6.21,0,3.53-.93,5.92-3.18,8.23-1.08,1.11-3.95,2.94-4.6,2.94-.09,0-.38-.73-.64-1.61-.64-2.13-3.5-6.38-4.93-7.31-2.1-1.37-5.59-4.92-6.16-6.27-1.38-3.26-.2-9.11,2.16-10.65,1.15-.75,1.32-2.19.31-2.58-.96-.37-5.25,1.93-7.83,4.19-3.36,2.94-6.78,9.36-6.78,12.72,0,2.31,1.17,5.32,3.76,9.69,4.1,6.89,4.59,9.72,2.15,12.26-.84.87-1.49,1.15-2.71,1.15-1.43,0-1.96-.34-4.88-3.12-4.58-4.37-6.72-5.29-12.19-5.27-5.69.02-7.26.94-4.98,2.92.56.48,1.53,1.15,2.17,1.49,1.21.63,3.61,3.58,4.94,6.06.59,1.11.77,2.33.77,5.17,0,4.98-.93,6.73-7.03,13.24-2.76,2.95-5.11,7.14-7.03,12.52l-.48,1.35-2.23-4.04c-1.23-2.22-2.94-5.44-3.81-7.14l-1.58-3.1.27-4.16c.3-4.73-.26-7.72-2.29-12.06-.89-1.9-1.47-2.64-2.24-2.83-1.54-.39-1.8-.03-1.99,2.71-.16,2.15-.37,2.69-1.58,3.94-1.67,1.72-2.76,1.81-4.88.42-2.7-1.79-3.11-2.95-3.23-9.2-.17-8.69-1.24-11.47-6.57-17.09-4.8-5.07-5.94-8.29-5.11-14.47.11-.79-.05-1.03-.65-1.03-.54,0-1.24.82-2.24,2.64-2.58,4.7-2.34,9.48.83,16.81,1.92,4.43,1.96,6.1.2,7.41-2.47,1.84-9.57.52-12.07-2.23-.72-.79-3.12-7.14-4-10.55-.58-2.28-.2-5.98.91-8.65,1.01-2.44.88-3.56-.42-3.56-1.58,0-7.88,8.03-8.94,11.38-.36,1.14-.76,3.6-.89,5.48-.13,1.88-.35,3.4-.49,3.39-.25-.02-2.09-2.29-5.15-6.35-3.85-5.1-4.8-9.22-3.77-16.32.79-5.44.63-7.53-.88-11.6-1.18-3.2-6.16-9.9-9.33-12.56-1.65-1.39-2.05-1.55-2.79-1.16-1.3.69-1.07,1.44,1.2,3.95l2.07,2.28v3.62c-.01,4.55-.67,7.04-3.27,12.28-3.73,7.53-4.12,11.08-2.09,19.43,1.36,5.6,1.31,6.84-.37,9.59-1.07,1.74-4.67,2.83-8.62,2.61-2.39-.14-3.23-.39-5.04-1.55-1.41-.9-2.47-1.98-3.03-3.08-1.71-3.35-1.41-9.32.7-14.09,3.44-7.78,2.84-16.75-1.69-25.03-2.31-4.22-3.74-5.51-4.86-4.4-.53.53-.48.92.45,3.21.98,2.43,1.02,2.75.54,4.87-.28,1.25-.77,3.51-1.08,5.02-.71,3.48-2.23,6.04-5.69,9.6-3.22,3.32-4.64,6.01-5.26,9.98-.57,3.62-.3,5.25,1.65,10.15,2.22,5.56,2.73,8.27,1.87,9.92-.95,1.83-2.28,2.34-4.34,1.66-1.99-.66-2.6-1.29-3.75-3.89-.61-1.37-.8-2.42-.63-3.34.18-.97.07-1.5-.42-1.91-.58-.48-.79-.42-1.52.46-2.44,2.96-3.89,8.37-3,11.16.54,1.69,2.94,5.2,5.37,7.84,1.25,1.36,2.39,2.95,2.54,3.53.65,2.61-.9,7.24-2.97,8.87-1.31,1.03-1.88,1.07-3.64.24-1.88-.89-2.73-2.61-3.64-7.36-1.14-5.9-2.42-8.21-7.96-14.36-3.55-3.94-4.34-5.4-4.73-8.69-.24-2.08-.35-2.28-1.3-2.28-1.02,0-1.04.06-1.36,4.55-.42,5.96-.03,7.63,3.18,13.45,4,7.24,4.16,7.94,3.73,16.12-.75,14.17-.5,16.09,3.39,26.41,2.35,6.23,2.51,7.12,1.76,9.62-.7,2.35-3.47,3.27-5.26,1.75-1.15-.98-3.79-5.1-3.79-5.91,0-.36-.27-1.02-.6-1.46-.56-.75-.64-.76-1.3-.1-.6.59-.72,1.6-.75,6.41-.04,5.59-.01,5.76,1.19,7.99.72,1.32,2.99,4.03,5.42,6.47,2.31,2.31,4.74,5.01,5.4,6,3.14,4.67,4.18,10.22,2.37,12.63-.82,1.1-1.06,1.17-3.72,1.13-2.1-.03-3.46-.32-5.17-1.09-4.77-2.16-7.24-5.71-8.48-12.23-1.86-9.81-3.12-13.74-5.88-18.48-2.23-3.82-10.83-12.04-10.83-10.36,0,.12.96,2.12,2.13,4.45,1.17,2.33,2.56,5.4,3.1,6.82,1.07,2.85,3.05,14.9,3.05,18.64,0,2.94,1.62,10.17,3.06,13.75,4.71,11.65,12.67,19.39,23.99,23.36,1.8.63,4.38,1.8,5.75,2.6,5.15,3.02,7.05,5.68,6.1,8.54-.61,1.86-2.16,2.5-5.06,2.1-3.11-.43-4.03-.85-5.98-2.75-1.61-1.57-2.62-1.8-2.62-.6,0,1.01,3.72,5.85,5.86,7.63,3.05,2.53,5.6,3.71,9.11,4.22,4.69.68,7,1.26,9.05,2.29,2.33,1.16,6.01,4.43,6.31,5.59.32,1.21-.91,2.29-3.47,3.05-2.06.61-4.76.49-8.93-.4-1.04-.22-2.27.81-1.95,1.64.23.6,5.09,2.77,7.82,3.49.91.24,4.18.54,7.26.67,3.08.13,6.15.39,6.83.6,3.43,1.02,7.84,3.58,10.68,6.2,2.82,2.6,4.79,6.69,3.46,7.2-1.03.4-4.02-.49-7.42-2.2-3.47-1.75-5.07-2.01-6.35-1.01-.79.61-.78.64.17,1.45.54.46,1.31.83,1.72.83.7,0,4.11,2.45,6.03,4.33.47.46,1.99,2.24,3.37,3.95,4.46,5.53,6.16,6.62,13.15,8.5,2.28.61,5.07,1.39,6.21,1.72,4.12,1.22,11.31,5.96,13.04,8.61,1.08,1.65,1.03,1.86-.37,1.86-1.81,0-4.06-1.1-5.08-2.48-1.19-1.61-2.83-1.72-2.83-.2,0,1.32,2.58,6.48,3.82,7.66.52.49,1.87,1.37,3.01,1.96,1.85.96,2.68,1.1,7.87,1.31l5.8.23,2.94,1.75c2.98,1.77,6.76,5.47,6.76,6.62,0,.53-.55.59-3.62.36-1.99-.14-4.27-.31-5.07-.36-2.38-.16-1.94,1.23,1.03,3.22,3.56,2.39,6.11,3.1,11.13,3.1,3.93,0,4.39.09,7.09,1.4,1.59.77,4.26,2.4,5.95,3.62,6.11,4.43,6.93,4.97,10.86,7.2,2.2,1.25,4.39,2.26,4.87,2.26s1.64-.55,2.57-1.23c.94-.68,2.36-1.36,3.16-1.51,1.62-.3,8.2-4.05,11.95-6.82,1.33-.98,4.29-3.6,6.58-5.82,5.18-5.03,6.64-5.73,12.65-6.11,3.96-.25,4.55-.39,5.92-1.44,1.91-1.46,1.88-2.73-.08-3.24-1.05-.27-1.34-.57-1.34-1.35,0-1.38,2.01-2.79,5.79-4.05,4.56-1.52,5.08-1.61,11.06-1.94,5.17-.28,5.64-.38,8.51-1.8,3.8-1.88,6.28-4.04,9-7.86,1.17-1.64,3.72-4.49,5.68-6.32,2.61-2.45,3.48-3.52,3.29-4.03-.39-1.02-2.02-.85-3.86.41-.89.61-2.37,1.62-3.3,2.26-5.2,3.55-9.45,4.37-11.59,2.23-.99-.99-1-1.08-.38-2.28.75-1.44,3.33-3.46,5.93-4.64,1.83-.83,7.5-2.1,12.6-2.82,3.9-.55,5.75-1.61,9.73-5.51,4.07-4,6.64-7.83,5.86-8.77-.28-.33-.68-.61-.89-.61s-1.67,1.11-3.24,2.46c-6.53,5.62-12.66,3.81-8.03-2.36,3.37-4.48,6.34-7.04,10.68-9.19,2.3-1.14,5.33-2.51,6.75-3.05,1.41-.54,3.89-1.89,5.51-3,2.89-1.97,4.29-3.34,9.37-9.13,2.54-2.9,3.82-3.75,7.73-5.12,2.34-.82,2.96-1.59,2.17-2.68-.6-.83-1.9-.92-5.72-.4-3.09.42-4.46-.35-4.46-2.5,0-1.12.38-1.86,1.67-3.25,2-2.17,2.68-2.44,8.25-3.27,7.13-1.06,11.25-3.67,15.8-10,1.93-2.68,2.84-4.51,3.48-6.94.44-1.68.43-2.06-.09-2.59-.95-.95-1.23-.79-3.1,1.76-3.23,4.4-4.03,5.07-6.01,5.07-1.65,0-1.83-.11-2.61-1.64-1.11-2.18-1.05-3.55.25-6.18,1.6-3.22,4.88-6.5,9.72-9.75,9.95-6.68,15.58-15.25,15.64-23.81.01-1.48-.45-4.73-1.03-7.24-2.93-12.69-2.9-14.28.51-25.86,2.35-7.99,2.37-8.12,2.33-13.15-.07-7.24-1.94-12.92-4.26-12.92-1.19,0-1.33.64-.61,2.76.36,1.07.87,3.82,1.12,6.11.39,3.51.35,4.81-.23,8.23-.93,5.51-1.73,7.21-7.22,15.51-2.6,3.93-5.31,8.5-6.01,10.14-1.2,2.81-1.29,3.39-1.53,9.81-.27,7.46-.79,9.27-3.15,11.13-1.49,1.17-2.36,1.09-4.01-.36-1.69-1.48-2.19-3.5-2.58-10.37-.25-4.48-.2-4.93.82-7.65,1.38-3.67,2.8-6.12,4.97-8.54,3.86-4.33,5.44-9.09,4.82-14.53-.31-2.66-.82-4.16-3.07-8.9-2.68-5.64-3.59-8.79-3.59-12.4,0-1.95-.77-2.68-1.87-1.77-1,.83-.79,6.37.46,11.94,1.25,5.56,1.15,7.89-.43,10.59-.94,1.6-1.59,2.06-4.09,2.87-1.18.38-3.38-.76-4.63-2.4-.63-.82-1.61-2.75-2.19-4.29-.96-2.54-1.07-3.57-1.33-11.68-.27-8.43-.34-9-1.34-10.98-1.23-2.42-4.57-5.69-5.6-5.48-.6.12-.68.56-.56,2.9.29,5.46-1.4,7.24-4.03,4.24-2.13-2.42-1.86-4.08,1.44-8.99,2.37-3.53,2.77-4.41,3.11-6.8.55-3.85,0-6.18-2.73-11.73-2.3-4.67-2.33-4.79-2.19-7.84.13-2.68.4-3.61,1.99-6.83,1.69-3.41,1.86-4.04,2-7.38.14-3.34.09-3.65-.59-3.52-.42.08-.88.7-1.07,1.43-.41,1.58-3.29,4.3-5.99,5.67-2.31,1.17-5.87,4.76-7.09,7.15-1.34,2.63-1.45,4.85-.52,10.24,1.24,7.18,1.14,8.3-1.09,11.54-1.82,2.65-5.18,2.93-6.91.57-1.83-2.49-2.6-5.95-1.91-8.53.25-.93,1.27-2.59,2.29-3.74,2.16-2.44,2.45-3.3,2.46-7.43,0-2.87-.06-3.11-.89-3.23-.62-.09-.98.15-1.18.76-.34,1.06-3.18,2.45-5.04,2.46-.9,0-1.53-.28-1.97-.91-1.36-1.95-.42-5.16,2.68-9.07,2.65-3.35,3.47-6.02,3.48-11.32.01-3.95-.12-4.81-.96-6.54-1.16-2.36-2.48-2.58-3.08-.49-.19.68-1.04,2.6-1.87,4.27-1.56,3.1-4.88,6.65-8.79,9.39-1.32.93-2.23,2.11-3.56,4.67-1.66,3.18-1.79,3.66-1.78,6.62,0,3.8.44,5.57,2.3,9.3,1.93,3.86,2.81,7.08,2.48,9.1-.49,3.04-3.23,4.1-5.89,2.28-1.94-1.33-2.39-2.68-1.98-6.01.56-4.6.38-10.43-.38-12.47-1.9-5.08-6.84-12.2-10.15-14.64-4.6-3.39-6.31-4.98-7.16-6.66-1.09-2.14-1.97-5.39-1.98-7.32,0-2.26,1.1-5.5,2.26-6.58,1.33-1.25,1.38-2.49.11-2.49-.55,0-1.74.78-2.87,1.89m104.93,27.55c-.37.6-.84,5.46-1.34,13.8-.3,4.99-.56,6.44-1.86,10.44-1.75,5.37-1.92,8.08-.67,10.83,1.18,2.61,5.9,9.55,6.39,9.4.23-.07.43-1.74.45-3.81.04-4.26.85-7.2,3.47-12.64,3.08-6.39,3-10.73-.31-16.94-1.89-3.54-2.68-5.65-3.7-9.9-.37-1.53-1.79-2.22-2.43-1.18m-319.3,56.47c-.52.52-.31,2.79.54,5.85.46,1.65,1.02,4.3,1.24,5.91.48,3.4,1.39,5.34,4.12,8.83,1.09,1.39,2.42,3.45,2.96,4.58.54,1.13,1.18,2.11,1.41,2.18.24.07.86-.27,1.38-.75.9-.84.94-1.12.81-5.9-.17-6.09-.83-7.73-5.31-13.1-1.61-1.93-3.43-4.44-4.05-5.58-1.06-1.95-2.34-2.78-3.1-2.02"/></svg>