<?xml version="1.0" encoding="UTF-8"?><svg id="Layer_1" xmlns="http://www.w3.org/2000/svg" xmlns:xlink="http://www.w3.org/1999/xlink" viewBox="0 0 2154.39 430.08"><defs><style>.cls-1{fill:url(#linear-gradient-2);}.cls-2{fill:url(#linear-gradient);filter:url(#drop-shadow-1);}.cls-3{fill:#fff;font-family:MontserratRoman-Regular, Montserrat;font-size:112.44px;font-variation-settings:'wght' 400;letter-spacing:0em;}.cls-4{filter:url(#drop-shadow-2);}</style><linearGradient id="linear-gradient" x1="382.31" y1="294.35" x2="96.25" y2="580.41" gradientTransform="translate(0 651.72) scale(1 -1)" gradientUnits="userSpaceOnUse"><stop offset="0" stop-color="#f700fd"/><stop offset="1" stop-color="#00c4ff"/></linearGradient><filter id="drop-shadow-1" filterUnits="userSpaceOnUse"><feOffset dx="7" dy="7"/><feGaussianBlur result="blur" stdDeviation="5"/><feFlood flood-color="#000" flood-opacity=".75"/><feComposite in2="blur" operator="in"/><feComposite in="SourceGraphic"/></filter><filter id="drop-shadow-2" filterUnits="userSpaceOnUse"><feOffset dx="7" dy="7"/><feGaussianBlur result="blur-2" stdDeviation="5"/><feFlood flood-color="#000" flood-opacity=".75"/><feComposite in2="blur-2" operator="in"/><feComposite in="SourceGraphic"/></filter><linearGradient id="linear-gradient-2" x1="1759.74" y1="-267.48" x2="913.73" y2="578.53" gradientUnits="userSpaceOnUse"><stop offset="0" stop-color="#f700fd"/><stop offset=".09" stop-color="#ec08fd"/><stop offset=".24" stop-color="#cf1ffd"/><stop offset=".44" stop-color="#a044fd"/><stop offset=".69" stop-color="#5e78fe"/><stop offset=".96" stop-color="#0cb9fe"/><stop offset="1" stop-color="#00c4ff"/></linearGradient></defs><path class="cls-2" d="m470.39,246.65v.5c0,28.85-22.65,52.27-50.61,52.27-7.56,0-13.7-6.34-13.7-14.16v-76.69c0-5.71,3.27-10.63,8.02-12.88-7.96-92.38-83.33-165.08-174.82-165.08S72.42,103.3,64.46,195.67c4.75,2.25,8.02,7.16,8.02,12.88v76.69c0,7.82-6.14,14.16-13.7,14.16-27.96,0-50.61-23.41-50.61-52.27v-.5c0-14.43,5.65-27.5,14.83-36.94,5.42-5.58,12.02-9.9,19.41-12.52C49.77,91.61,135.22,8.05,239.28,8.05s189.51,83.56,196.87,189.15c7.4,2.61,14,6.93,19.41,12.52,9.18,9.44,14.83,22.52,14.83,36.94h0Zm-346.98,15.29v-35.14c0-7.92-6.42-14.35-14.35-14.35s-14.34,6.42-14.34,14.35v35.14c0,7.92,6.42,14.35,14.34,14.35s14.35-6.42,14.35-14.35Zm86.06,35.69v-106.51c0-7.92-6.42-14.34-14.34-14.34s-14.35,6.42-14.35,14.34v106.51c0,7.92,6.42,14.35,14.35,14.35s14.34-6.42,14.34-14.35Zm-42.81,45.94v-198.41c0-7.92-6.42-14.35-14.34-14.35s-14.34,6.42-14.34,14.35v198.41c0,7.92,6.42,14.34,14.34,14.34s14.34-6.42,14.34-14.34Zm85.94,50.12V95.03c0-7.92-6.42-14.35-14.35-14.35s-14.34,6.42-14.34,14.35v298.66c0,7.92,6.42,14.35,14.34,14.35s14.35-6.42,14.35-14.35h0Zm85.94-50.12v-198.41c0-7.92-6.42-14.35-14.34-14.35s-14.35,6.42-14.35,14.35v198.41c0,7.92,6.42,14.34,14.35,14.34s14.34-6.42,14.34-14.34Zm-42.81-45.94v-106.51c0-7.92-6.42-14.34-14.35-14.34s-14.35,6.42-14.35,14.34v106.51c0,7.92,6.42,14.35,14.35,14.35s14.35-6.42,14.35-14.35Zm82.75-35.69v-35.14c0-7.92-6.42-14.35-14.35-14.35s-14.34,6.42-14.34,14.35v35.14c0,7.92,6.42,14.35,14.34,14.35s14.35-6.42,14.35-14.35Z"/><g class="cls-4"><path class="cls-1" d="m698.19,152.58c4.02,6.52,6.02,14.59,6.02,24.23,0,10.53-2.9,20.17-8.7,28.91-5.8,8.75-14.59,15.79-26.37,21.15-11.78,5.35-26.5,8.03-44.17,8.03-14.99,0-29.41-2.01-43.24-6.02-13.83-4.02-24.94-9.24-33.33-15.66l14.72-32.66c7.86,5.72,17.31,10.4,28.38,14.05,11.07,3.67,22.22,5.49,33.46,5.49,8.57,0,15.49-.88,20.75-2.68,5.26-1.78,9.14-4.15,11.65-7.09,2.5-2.94,3.75-6.37,3.75-10.31,0-4.99-1.97-8.97-5.89-11.91-3.92-2.94-9.14-5.35-15.66-7.23-6.52-1.87-13.61-3.65-21.28-5.35-7.67-1.69-15.39-3.75-23.16-6.16-7.76-2.41-14.9-5.62-21.42-9.64-6.52-4.02-11.69-9.28-15.53-15.79-3.84-6.51-5.76-14.67-5.76-24.5,0-10.71,2.85-20.48,8.57-29.31,5.72-8.83,14.42-15.88,26.1-21.15,11.69-5.26,26.37-7.9,44.04-7.9,11.78,0,23.42,1.43,34.94,4.28,11.51,2.86,21.55,6.96,30.12,12.31l-13.65,32.66c-8.39-4.82-17.04-8.43-25.97-10.84-8.93-2.41-17.49-3.61-25.7-3.61s-15.43.94-20.61,2.81c-5.18,1.87-8.97,4.42-11.38,7.63-2.41,3.21-3.61,6.79-3.61,10.71,0,5.01,1.97,9.02,5.89,12.05,3.92,3.04,9.1,5.41,15.53,7.09,6.43,1.7,13.56,3.4,21.42,5.09,7.86,1.7,15.62,3.8,23.29,6.29,7.67,2.5,14.72,5.68,21.15,9.5,6.43,3.84,11.65,9.02,15.66,15.53Zm164.51-31.32c6.77,11.16,10.17,23.96,10.17,38.42s-3.4,27.23-10.17,38.28c-6.79,11.07-16.16,19.81-28.11,26.24-11.97,6.43-25.62,9.64-40.96,9.64s-28.69-3.21-40.56-9.64-21.2-15.21-27.98-26.37c-6.79-11.15-10.17-23.87-10.17-38.15s3.39-27.25,10.17-38.42c6.77-11.15,16.1-19.89,27.98-26.24,11.87-6.33,25.38-9.5,40.56-9.5s28.99,3.17,40.96,9.5c11.95,6.34,21.32,15.09,28.11,26.24Zm-32.13,38.42c0-8.38-1.66-15.53-4.95-21.42-3.31-5.89-7.68-10.39-13.12-13.52-5.45-3.12-11.65-4.68-18.61-4.68s-13.21,1.57-18.74,4.68c-5.53,3.13-9.95,7.63-13.25,13.52-3.31,5.89-4.95,13.04-4.95,21.42s1.65,15.35,4.95,21.42c3.31,6.08,7.72,10.67,13.25,13.79,5.53,3.13,11.69,4.68,18.47,4.68,7.13,0,13.43-1.55,18.87-4.68,5.43-3.12,9.81-7.71,13.12-13.79,3.29-6.06,4.95-13.2,4.95-21.42Zm168.39-.54c0,8.57-1.47,15.71-4.42,21.42-2.94,5.72-6.92,10-11.91,12.85-5.01,2.86-10.71,4.28-17.13,4.28-9.29,0-16.46-2.81-21.55-8.43-5.09-5.62-7.63-14.5-7.63-26.64v-74.96h-41.76v81.38c0,14.64,2.58,26.77,7.76,36.41,5.18,9.64,12.39,16.79,21.68,21.42,9.28,4.64,19.98,6.96,32.13,6.96,11.06,0,21.24-2.54,30.52-7.63,5.47-3,10.21-6.87,14.19-11.58v17.07h39.62V87.66h-41.5v71.48Zm192.88-66.79c-9.02-4.55-19.23-6.83-30.65-6.83-12.31,0-23.29,2.6-32.93,7.76-5.69,3.05-10.6,6.88-14.72,11.5v-17.12h-39.89v144.03h41.76v-71.21c0-9.1,1.47-16.41,4.42-21.95,2.94-5.53,7.04-9.72,12.31-12.58,5.26-2.85,11.19-4.28,17.8-4.28,9.28,0,16.46,2.77,21.55,8.3,5.09,5.54,7.63,14.11,7.63,25.7v76.03h41.76v-82.45c0-14.63-2.6-26.64-7.76-36.01-5.18-9.37-12.27-16.33-21.28-20.88Zm166.1-59.3h41.76v198.64h-39.89v-16.44c-3.56,4.36-7.71,7.92-12.45,10.68-9.01,5.27-19.85,7.9-32.53,7.9-13.56,0-25.78-3.08-36.68-9.24-10.88-6.16-19.45-14.76-25.7-25.83-6.24-11.06-9.37-24.09-9.37-39.09s3.13-28.02,9.37-39.09c6.25-11.06,14.82-19.68,25.7-25.83,10.9-6.16,23.12-9.24,36.68-9.24,12.14,0,22.76,2.68,31.86,8.03,4.19,2.46,7.94,5.51,11.24,9.14V33.05Zm.8,126.63c0-8.38-1.65-15.53-4.95-21.42-3.29-5.89-7.71-10.39-13.25-13.52-5.53-3.12-11.78-4.68-18.74-4.68s-12.93,1.57-18.47,4.68c-5.53,3.13-9.95,7.63-13.25,13.52-3.29,5.89-4.95,13.04-4.95,21.42s1.66,15.35,4.95,21.42c3.31,6.08,7.72,10.67,13.25,13.79,5.54,3.13,11.7,4.68,18.47,4.68s13.21-1.55,18.74-4.68c5.54-3.12,9.96-7.71,13.25-13.79,3.31-6.06,4.95-13.2,4.95-21.42Zm229.7-83.79c6.6,10.17,9.91,22.22,9.91,36.14s-3.31,26.2-9.91,36.27c-6.6,10.09-15.97,17.9-28.11,23.42-12.14,5.54-26.6,8.3-43.37,8.3h-37.48v51.67h-43.64V44.29h81.12c16.77,0,31.23,2.73,43.37,8.17,12.14,5.45,21.51,13.25,28.11,23.42Zm-33.73,36.14c0-10.35-3.39-18.34-10.17-23.96-6.79-5.62-16.77-8.43-29.98-8.43h-35.07v65.05h35.07c13.21,0,23.2-2.85,29.98-8.57,6.79-5.7,10.17-13.73,10.17-24.09Zm172.14,47.12c0,8.57-1.47,15.71-4.42,21.42-2.94,5.72-6.92,10-11.91,12.85-5.01,2.86-10.71,4.28-17.13,4.28-9.29,0-16.46-2.81-21.55-8.43-5.09-5.62-7.63-14.5-7.63-26.64v-74.96h-41.76v81.38c0,14.64,2.58,26.77,7.76,36.41,5.18,9.64,12.39,16.79,21.68,21.42,9.28,4.64,19.98,6.96,32.13,6.96,11.06,0,21.24-2.54,30.52-7.63,5.47-3,10.21-6.87,14.19-11.58v17.07h39.62V87.66h-41.5v71.48Zm74.69,72.55h41.76V33.05h-41.76v198.64Zm174.41-75.63c-5.27-2.94-10.94-5.22-17-6.83-6.08-1.61-12.23-2.85-18.47-3.75-6.25-.88-11.97-1.78-17.13-2.68-5.18-.88-9.37-2.28-12.58-4.15-3.21-1.87-4.82-4.59-4.82-8.17,0-3.92,2.14-7.13,6.43-9.64,4.28-2.49,11.24-3.75,20.88-3.75,6.43,0,13.16.8,20.21,2.41,7.04,1.61,13.96,4.38,20.75,8.3l14.19-29.72c-6.96-3.92-15.49-7-25.57-9.24-10.09-2.22-20.13-3.35-30.12-3.35-13.92,0-25.79,1.97-35.61,5.89-9.83,3.94-17.4,9.42-22.76,16.46-5.35,7.05-8.03,15.13-8.03,24.23,0,8.22,1.55,14.91,4.68,20.08,3.12,5.18,7.31,9.24,12.58,12.18,5.26,2.94,10.98,5.22,17.13,6.83s12.35,2.86,18.61,3.75c6.24.9,11.91,1.79,17,2.68,5.09.9,9.18,2.2,12.31,3.88,3.12,1.7,4.68,4.24,4.68,7.63,0,4.11-2.01,7.32-6.02,9.64-4.02,2.33-10.84,3.48-20.48,3.48-8.75,0-17.63-1.29-26.64-3.88-9.02-2.58-16.92-5.84-23.69-9.77l-13.65,29.72c6.77,4.47,15.79,8.17,27.04,11.11,11.24,2.94,23.02,4.42,35.34,4.42,14.46,0,26.72-1.97,36.81-5.89,10.08-3.92,17.8-9.32,23.16-16.2,5.35-6.87,8.03-14.67,8.03-23.42,0-8.21-1.57-14.9-4.68-20.08-3.13-5.17-7.32-9.24-12.58-12.18Zm178.43,4.15c0,1.61-.09,3.44-.27,5.49-.19,2.06-.36,3.98-.54,5.76h-108.96c.88,3.9,2.32,7.47,4.28,10.71,3.56,5.89,8.47,10.4,14.72,13.52,6.24,3.13,13.73,4.68,22.49,4.68,7.5,0,14.14-1.15,19.94-3.48,5.8-2.32,11.11-5.8,15.93-10.44l22.22,24.09c-6.61,7.5-14.91,13.25-24.9,17.27-10,4.02-21.51,6.02-34.53,6.02-16.42,0-30.79-3.21-43.1-9.64-12.31-6.43-21.87-15.21-28.65-26.37-6.79-11.15-10.17-23.87-10.17-38.15s3.25-27.04,9.77-38.28c6.51-11.24,15.61-20.02,27.31-26.37,11.69-6.33,24.84-9.5,39.49-9.5s26.81,3.04,38.15,9.1c11.32,6.08,20.29,14.64,26.91,25.7,6.6,11.07,9.91,24.36,9.91,39.89Zm-39.46-13.12c-.59-4.54-1.9-8.63-3.91-12.31-3.04-5.53-7.23-9.85-12.58-12.98-5.35-3.12-11.61-4.68-18.74-4.68s-13.44,1.57-18.87,4.68c-5.45,3.13-9.69,7.5-12.72,13.12-1.97,3.63-3.29,7.68-3.98,12.18h70.8Z"/><text class="cls-3" transform="translate(540.92 353.92)"><tspan x="0" y="0">Le Rythme de votre Musique</tspan></text></g></svg>