<?xml version="1.0" encoding="UTF-8"?><svg id="Layer_1" xmlns="http://www.w3.org/2000/svg" xmlns:xlink="http://www.w3.org/1999/xlink" viewBox="0 0 500 432.7"><defs><style>.cls-1{fill:url(#linear-gradient);}</style><linearGradient id="linear-gradient" x1="404.72" y1="377.88" x2="95.28" y2="68.44" gradientUnits="userSpaceOnUse"><stop offset="0" stop-color="#f700fd"/><stop offset="1" stop-color="#00c4ff"/></linearGradient></defs><path class="cls-1" d="m500,258.11v.54c0,31.21-24.5,56.54-54.75,56.54-8.18,0-14.82-6.86-14.82-15.32v-82.96c0-6.18,3.54-11.5,8.68-13.93-8.61-99.93-90.14-178.57-189.11-178.57S69.5,103.04,60.89,202.96c5.14,2.43,8.68,7.75,8.68,13.93v82.96c0,8.46-6.64,15.32-14.82,15.32-30.25,0-54.75-25.32-54.75-56.54v-.54c0-15.61,6.11-29.75,16.04-39.96,5.86-6.04,13-10.71,21-13.54C45,90.39,137.43,0,250,0s205,90.39,212.96,204.61c8,2.82,15.14,7.5,21,13.54,9.93,10.21,16.04,24.36,16.04,39.96Zm-375.35,16.54v-38.01c0-8.57-6.95-15.52-15.52-15.52s-15.51,6.95-15.51,15.52v38.01c0,8.57,6.95,15.52,15.51,15.52s15.52-6.95,15.52-15.52Zm93.09,38.61v-115.22c0-8.57-6.95-15.51-15.51-15.51s-15.52,6.95-15.52,15.51v115.22c0,8.57,6.95,15.52,15.52,15.52s15.51-6.95,15.51-15.52Zm-46.31,49.7v-214.63c0-8.57-6.95-15.52-15.51-15.52s-15.51,6.95-15.51,15.52v214.63c0,8.57,6.95,15.51,15.51,15.51s15.51-6.94,15.51-15.51Zm92.97,54.22V94.1c0-8.57-6.95-15.52-15.52-15.52s-15.51,6.95-15.51,15.52v323.08c0,8.57,6.95,15.52,15.51,15.52s15.52-6.94,15.52-15.52Zm92.97-54.22v-214.63c0-8.57-6.95-15.52-15.51-15.52s-15.52,6.95-15.52,15.52v214.63c0,8.57,6.95,15.51,15.52,15.51s15.51-6.94,15.51-15.51Zm-46.31-49.7v-115.22c0-8.57-6.95-15.51-15.52-15.51s-15.52,6.95-15.52,15.51v115.22c0,8.57,6.95,15.52,15.52,15.52s15.52-6.95,15.52-15.52Zm89.52-38.61v-38.01c0-8.57-6.94-15.52-15.52-15.52s-15.51,6.95-15.51,15.52v38.01c0,8.57,6.94,15.52,15.51,15.52s15.52-6.95,15.52-15.52Z"/></svg>